<svg xmlns="http://www.w3.org/2000/svg" xmlns:v="https://svgstorm.com"
viewBox = "0 0 1024 1024"
width="1024"
height="1024">
<g fill="None" fill-opacity="0.0" stroke="#310B0F" stroke-opacity="1.00" stroke-width="0.3"><path d="
M 0.00 1024.00 
L 1024.00 1024.00
L 1024.00 0.00
L 0.00 0.00
L 0.00 1024.00
M 769.00 303.00 
C 780.29 303.00 788.53 303.40 780.75 311.75 C 772.96 320.09 771.83 321.05 766.08 328.08 C 760.34 335.11 756.66 338.16 751.25 344.25 C 745.84 350.34 741.37 355.43 736.25 361.25 C 731.13 367.07 726.94 372.22 721.75 377.75 C 716.56 383.28 712.48 388.82 707.25 394.25 C 702.02 399.68 697.16 405.66 692.25 411.25 C 687.34 416.83 682.83 422.33 677.75 427.75 C 672.67 433.17 667.99 438.63 663.25 444.25 C 658.50 449.87 652.34 455.08 647.75 460.75 C 643.17 466.42 638.01 471.79 633.25 477.25 C 628.49 482.70 623.13 488.44 619.23 494.23 C 615.33 500.02 606.94 505.39 604.75 511.75 C 602.55 518.10 613.21 523.97 616.30 529.70 C 619.39 535.42 626.30 540.97 630.25 546.75 C 634.21 552.52 640.54 558.40 644.75 564.25 C 648.97 570.10 654.10 575.57 658.75 581.25 C 663.40 586.93 667.99 592.53 672.75 598.25 C 677.52 603.97 682.00 610.45 686.92 616.08 C 691.84 621.72 696.52 627.20 700.92 633.08 C 705.31 638.97 710.58 644.01 715.25 649.75 C 719.92 655.50 724.36 662.10 729.25 667.75 C 734.15 673.39 738.79 678.83 743.30 684.70 C 747.82 690.56 752.87 695.75 757.25 701.75 C 761.63 707.75 767.93 713.33 771.00 720.00
C 767.00 721.54 762.37 720.87 758.00 721.00
C 718.64 721.00 678.25 723.67 639.00 721.00
C 619.80 719.69 605.07 706.78 594.08 691.92 C 583.10 677.06 572.93 664.33 561.25 650.75 C 549.57 637.17 540.43 622.44 528.25 609.75 C 516.06 597.07 509.17 578.09 491.98 572.03 C 474.78 565.96 459.63 590.06 448.00 600.00
C 442.71 605.29 437.67 611.15 432.00 616.00
C 420.12 626.15 402.11 638.70 387.75 626.25 C 373.40 613.79 374.33 591.56 377.78 575.78 C 381.23 560.00 395.78 550.30 404.92 537.92 C 414.06 525.53 425.23 515.67 434.77 503.77 C 444.31 491.87 455.77 481.10 465.30 469.30 C 474.83 457.50 485.97 447.33 495.75 435.75 C 505.54 424.17 515.54 413.12 525.75 401.75 C 535.97 390.38 546.14 378.77 556.25 367.25 C 566.36 355.73 576.30 345.03 586.25 333.25 C 596.21 321.48 607.64 308.24 623.00 305.00
C 636.24 300.17 653.91 302.22 670.00 302.00 C 686.09 301.78 703.77 302.07 720.00 302.00 C 736.23 301.93 753.58 301.51 769.00 303.00
M 386.00 304.00 
C 385.77 304.35 386.00 305.00 386.00 305.00
C 402.96 306.94 415.94 329.47 419.00 344.00
C 420.99 348.55 422.89 354.16 422.00 361.00 C 421.11 367.84 422.43 375.17 422.00 382.00 C 421.57 388.83 422.26 396.30 422.00 403.00 C 421.74 409.70 422.26 416.54 422.00 423.00 C 421.74 429.46 422.41 438.00 422.00 444.00 C 421.59 450.00 422.84 460.12 422.00 465.00 C 421.16 469.88 424.74 482.99 420.00 484.00
C 407.11 492.98 397.81 511.39 387.25 523.25 C 376.69 535.11 361.74 550.79 357.00 566.00
C 350.31 587.46 352.96 613.42 364.77 632.23 C 376.58 651.04 400.62 658.02 421.00 650.00
C 424.24 677.36 417.03 710.01 388.00 719.00
C 376.14 722.70 360.85 721.87 348.00 721.00 C 335.15 720.13 318.52 724.12 306.00 721.00
C 301.10 719.78 304.89 702.49 304.00 695.00 C 303.11 687.51 304.40 673.91 304.00 665.00 C 303.60 656.09 304.17 644.61 304.00 635.00 C 303.83 625.39 304.08 613.88 304.00 604.00 C 303.92 594.12 304.03 583.98 304.00 574.00 C 303.97 564.02 304.01 554.07 304.00 544.00 C 303.99 533.93 303.99 523.08 304.00 513.00 C 304.01 502.92 303.96 493.03 304.00 483.00 C 304.04 472.97 303.91 463.00 304.00 453.00 C 304.09 443.00 303.81 432.96 304.00 423.00 C 304.19 413.04 303.59 401.79 304.00 392.00 C 304.41 382.21 303.06 371.33 304.00 362.00 C 304.94 352.67 301.90 340.42 304.00 332.00 C 306.10 323.58 297.87 310.65 302.00 305.00
C 301.95 304.50 302.00 304.00 302.00 304.00
C 305.93 299.93 317.26 304.29 323.00 303.00 C 328.74 301.71 339.12 303.83 345.00 303.00 C 350.88 302.17 361.94 303.93 367.00 303.00 C 372.06 302.07 385.86 304.22 386.00 304.00
M 270.00 614.00 
C 267.07 620.03 262.63 623.06 256.00 624.00
C 240.24 626.24 239.92 606.79 241.00 595.00 C 242.08 583.21 240.49 580.68 241.00 571.00 C 241.51 561.32 240.77 556.60 241.00 548.00 C 241.23 539.40 240.89 533.15 241.00 525.00 C 241.11 516.85 240.94 508.93 241.00 501.00 C 241.06 493.07 240.94 485.76 241.00 478.00 C 241.06 470.24 240.91 462.64 241.00 455.00 C 241.09 447.36 240.82 438.41 241.00 431.00 C 241.18 423.59 240.18 415.46 241.93 408.93 C 243.68 402.39 248.82 399.69 255.00 399.00 C 261.19 398.32 267.92 401.57 269.92 408.08 C 271.93 414.58 270.79 422.66 271.00 430.00 C 271.21 437.34 270.90 445.40 271.00 453.00 C 271.10 460.60 270.94 469.32 271.00 477.00 C 271.06 484.68 270.94 492.36 271.00 500.00 C 271.06 507.64 270.89 515.40 271.00 523.00 C 271.11 530.60 270.78 539.60 271.00 547.00 C 271.22 554.40 270.50 563.13 271.00 570.00 C 271.50 576.87 269.88 587.19 271.00 593.00 C 272.12 598.81 269.02 612.98 270.00 614.00
M 209.00 562.00 
C 208.68 562.19 208.25 562.75 208.00 563.00
C 208.43 568.42 196.39 571.33 190.31 567.69 C 184.22 564.06 180.41 556.23 182.00 548.00 C 183.59 539.77 180.76 528.22 182.00 520.00 C 183.24 511.78 180.30 499.47 182.00 492.00 C 183.70 484.53 177.78 470.39 184.00 466.00
C 184.30 465.79 184.73 465.21 185.00 465.00
C 184.54 459.19 196.26 454.82 202.68 458.32 C 209.10 461.82 213.66 469.25 212.00 478.00 C 210.34 486.75 213.21 498.33 212.00 507.00 C 210.79 515.67 213.57 528.08 212.00 536.00 C 210.43 543.92 216.30 557.68 209.00 562.00 Z"/>
</g>
<g fill="None" fill-opacity="0.0" stroke="#190004" stroke-opacity="1.00" stroke-width="0.3"><path d="
M 623.00 305.00 
C 646.10 300.13 670.87 303.77 695.00 303.00 C 719.13 302.23 744.73 303.00 769.00 303.00
C 753.58 301.51 736.23 301.93 720.00 302.00 C 703.77 302.07 686.09 301.78 670.00 302.00 C 653.91 302.22 636.24 300.17 623.00 305.00 Z"/>
</g>
<g fill="None" fill-opacity="0.0" stroke="#170000" stroke-opacity="1.00" stroke-width="0.3"><path d="
M 302.00 304.00 
C 315.74 302.76 330.19 304.00 344.00 304.00 C 357.81 304.00 372.26 302.76 386.00 304.00
C 385.86 304.22 372.06 302.07 367.00 303.00 C 361.94 303.93 350.88 302.17 345.00 303.00 C 339.12 303.83 328.74 301.71 323.00 303.00 C 317.26 304.29 305.93 299.93 302.00 304.00 Z"/>
</g>
<g fill="None" fill-opacity="0.0" stroke="#AD7599" stroke-opacity="1.00" stroke-width="0.3"><path d="
M 623.00 305.00 
C 607.64 308.24 596.21 321.48 586.25 333.25 C 576.30 345.03 566.36 355.73 556.25 367.25 C 546.14 378.77 535.97 390.38 525.75 401.75 C 515.54 413.12 505.54 424.17 495.75 435.75 C 485.97 447.33 474.83 457.50 465.30 469.30 C 455.77 481.10 444.31 491.87 434.77 503.77 C 425.23 515.67 414.06 525.53 404.92 537.92 C 395.78 550.30 381.23 560.00 377.78 575.78 C 374.33 591.56 373.40 613.79 387.75 626.25 C 402.11 638.70 420.12 626.15 432.00 616.00
C 437.29 610.71 442.33 604.85 448.00 600.00
C 459.63 590.06 474.78 565.96 491.98 572.03 C 509.17 578.09 516.06 597.07 528.25 609.75 C 540.43 622.44 549.57 637.17 561.25 650.75 C 572.93 664.33 583.10 677.06 594.08 691.92 C 605.07 706.78 619.80 719.69 639.00 721.00
C 677.27 719.89 719.88 717.31 758.00 721.00
C 762.37 720.87 767.00 721.54 771.00 720.00
C 767.93 713.33 761.63 707.75 757.25 701.75 C 752.87 695.75 747.82 690.56 743.30 684.70 C 738.79 678.83 734.15 673.39 729.25 667.75 C 724.36 662.10 719.92 655.50 715.25 649.75 C 710.58 644.01 705.31 638.97 700.92 633.08 C 696.52 627.20 691.84 621.72 686.92 616.08 C 682.00 610.45 677.52 603.97 672.75 598.25 C 667.99 592.53 663.40 586.93 658.75 581.25 C 654.10 575.57 648.97 570.10 644.75 564.25 C 640.54 558.40 634.21 552.52 630.25 546.75 C 626.30 540.97 619.39 535.42 616.30 529.70 C 613.21 523.97 602.55 518.10 604.75 511.75 C 606.94 505.39 615.33 500.02 619.23 494.23 C 623.13 488.44 628.49 482.70 633.25 477.25 C 638.01 471.79 643.17 466.42 647.75 460.75 C 652.34 455.08 658.50 449.87 663.25 444.25 C 667.99 438.63 672.67 433.17 677.75 427.75 C 682.83 422.33 687.34 416.83 692.25 411.25 C 697.16 405.66 702.02 399.68 707.25 394.25 C 712.48 388.82 716.56 383.28 721.75 377.75 C 726.94 372.22 731.13 367.07 736.25 361.25 C 741.37 355.43 745.84 350.34 751.25 344.25 C 756.66 338.16 760.34 335.11 766.08 328.08 C 771.83 321.05 772.96 320.09 780.75 311.75 C 788.53 303.40 780.29 303.00 769.00 303.00
C 744.73 303.00 719.13 302.23 695.00 303.00 C 670.87 303.77 646.10 300.13 623.00 305.00 Z"/>
</g>
<g fill="None" fill-opacity="0.0" stroke="#9C6686" stroke-opacity="1.00" stroke-width="0.3"><path d="
M 302.00 305.00 
C 302.03 305.35 302.89 305.74 303.00 306.00
C 315.48 302.26 330.50 306.32 344.00 305.00 C 357.50 303.69 372.39 306.22 386.00 305.00
C 386.00 305.00 385.77 304.35 386.00 304.00
C 372.26 302.76 357.81 304.00 344.00 304.00 C 330.19 304.00 315.74 302.76 302.00 304.00
C 302.00 304.00 301.95 304.50 302.00 305.00 Z"/>
</g>
<g fill="None" fill-opacity="0.0" stroke="#160003" stroke-opacity="1.00" stroke-width="0.3"><path d="
M 306.00 721.00 
C 301.53 717.87 306.35 704.90 305.00 699.00 C 303.65 693.10 305.61 682.87 305.00 676.00 C 304.39 669.13 305.28 660.31 305.00 653.00 C 304.72 645.69 305.12 637.50 305.00 630.00 C 304.88 622.50 305.06 614.59 305.00 607.00 C 304.94 599.41 305.03 591.63 305.00 584.00 C 304.97 576.37 305.01 568.65 305.00 561.00 C 304.99 553.35 305.01 545.66 305.00 538.00 C 304.99 530.34 305.00 522.66 305.00 515.00 C 305.00 507.34 305.00 499.66 305.00 492.00 C 305.00 484.34 305.01 476.66 305.00 469.00 C 304.99 461.34 305.01 453.66 305.00 446.00 C 304.99 438.34 305.03 430.65 305.00 423.00 C 304.97 415.35 305.06 407.63 305.00 400.00 C 304.94 392.37 305.13 384.58 305.00 377.00 C 304.87 369.42 305.28 361.47 305.00 354.00 C 304.72 346.53 305.61 338.23 305.00 331.00 C 304.39 323.77 306.56 315.22 303.00 309.00
C 302.78 308.62 303.00 308.00 303.00 308.00
C 303.00 307.50 303.18 306.42 303.00 306.00
C 302.89 305.74 302.03 305.35 302.00 305.00
C 297.87 310.65 306.10 323.58 304.00 332.00 C 301.90 340.42 304.94 352.67 304.00 362.00 C 303.06 371.33 304.41 382.21 304.00 392.00 C 303.59 401.79 304.19 413.04 304.00 423.00 C 303.81 432.96 304.09 443.00 304.00 453.00 C 303.91 463.00 304.04 472.97 304.00 483.00 C 303.96 493.03 304.01 502.92 304.00 513.00 C 303.99 523.08 303.99 533.93 304.00 544.00 C 304.01 554.07 303.97 564.02 304.00 574.00 C 304.03 583.98 303.92 594.12 304.00 604.00 C 304.08 613.88 303.83 625.39 304.00 635.00 C 304.17 644.61 303.60 656.09 304.00 665.00 C 304.40 673.91 303.11 687.51 304.00 695.00 C 304.89 702.49 301.10 719.78 306.00 721.00 Z"/>
</g>
<g fill="None" fill-opacity="0.0" stroke="#C28BAD" stroke-opacity="1.00" stroke-width="0.3"><path d="
M 303.00 306.00 
C 303.18 306.42 303.00 307.50 303.00 308.00
C 305.34 302.31 320.65 307.38 327.00 306.00 C 333.35 304.62 345.59 306.89 353.00 306.00 C 360.41 305.11 371.38 307.00 379.00 306.00 C 386.62 305.00 392.78 308.36 398.25 312.75 C 403.71 317.15 407.08 320.19 410.77 326.23 C 414.46 332.27 416.39 337.69 417.98 345.02 C 419.57 352.36 418.91 361.83 419.00 370.00 C 419.09 378.17 418.90 387.61 419.00 396.00 C 419.10 404.39 418.82 413.57 419.00 422.00 C 419.18 430.43 418.63 439.69 419.00 448.00 C 419.37 456.31 418.18 466.05 419.00 474.00 C 419.82 481.95 416.12 487.13 411.25 492.25 C 406.38 497.37 404.07 501.75 399.70 506.70 C 395.33 511.65 392.05 516.12 388.08 521.08 C 384.12 526.04 380.49 530.52 376.25 535.25 C 372.00 539.97 369.19 545.02 364.75 549.75 C 360.30 554.48 357.77 560.78 357.00 566.00
C 361.74 550.79 376.69 535.11 387.25 523.25 C 397.81 511.39 407.11 492.98 420.00 484.00
C 420.23 483.84 420.00 483.00 420.00 483.00
C 420.00 439.22 422.37 394.70 420.00 351.00
C 419.86 348.36 419.52 346.48 419.00 344.00
C 415.94 329.47 402.96 306.94 386.00 305.00
C 372.39 306.22 357.50 303.69 344.00 305.00 C 330.50 306.32 315.48 302.26 303.00 306.00 Z"/>
</g>
<g fill="None" fill-opacity="0.0" stroke="#AD7599" stroke-opacity="1.00" stroke-width="0.3"><path d="
M 303.00 308.00 
C 303.00 308.00 302.78 308.62 303.00 309.00
C 310.01 312.49 304.77 328.69 306.00 337.00 C 307.23 345.31 305.44 358.57 306.00 368.00 C 306.56 377.43 305.75 389.06 306.00 399.00 C 306.25 408.94 305.89 419.81 306.00 430.00 C 306.11 440.19 305.95 450.65 306.00 461.00 C 306.05 471.35 305.98 482.60 306.00 493.00 C 306.02 503.40 306.00 513.62 306.00 524.00 C 306.00 534.38 306.02 544.61 306.00 555.00 C 305.98 565.40 306.06 575.55 306.00 586.00 C 305.94 596.45 306.13 606.42 306.00 617.00 C 305.87 627.58 306.27 638.25 306.00 649.00 C 305.73 659.75 306.62 668.91 306.00 680.00 C 305.38 691.09 307.38 699.05 306.00 711.00 C 304.62 722.95 318.15 720.19 328.00 720.00 C 337.85 719.81 349.16 720.18 359.00 720.00 C 368.84 719.82 379.68 720.25 388.00 719.00
C 417.03 710.01 424.24 677.36 421.00 650.00
C 400.62 658.02 376.58 651.04 364.77 632.23 C 352.96 613.42 350.31 587.46 357.00 566.00
C 357.77 560.78 360.30 554.48 364.75 549.75 C 369.19 545.02 372.00 539.97 376.25 535.25 C 380.49 530.52 384.12 526.04 388.08 521.08 C 392.05 516.12 395.33 511.65 399.70 506.70 C 404.07 501.75 406.38 497.37 411.25 492.25 C 416.12 487.13 419.82 481.95 419.00 474.00 C 418.18 466.05 419.37 456.31 419.00 448.00 C 418.63 439.69 419.18 430.43 419.00 422.00 C 418.82 413.57 419.10 404.39 419.00 396.00 C 418.90 387.61 419.09 378.17 419.00 370.00 C 418.91 361.83 419.57 352.36 417.98 345.02 C 416.39 337.69 414.46 332.27 410.77 326.23 C 407.08 320.19 403.71 317.15 398.25 312.75 C 392.78 308.36 386.62 305.00 379.00 306.00 C 371.38 307.00 360.41 305.11 353.00 306.00 C 345.59 306.89 333.35 304.62 327.00 306.00 C 320.65 307.38 305.34 302.31 303.00 308.00 Z"/>
</g>
<g fill="None" fill-opacity="0.0" stroke="#BE8CA7" stroke-opacity="1.00" stroke-width="0.3"><path d="
M 306.00 721.00 
C 318.52 724.12 335.15 720.13 348.00 721.00 C 360.85 721.87 376.14 722.70 388.00 719.00
C 379.68 720.25 368.84 719.82 359.00 720.00 C 349.16 720.18 337.85 719.81 328.00 720.00 C 318.15 720.19 304.62 722.95 306.00 711.00 C 307.38 699.05 305.38 691.09 306.00 680.00 C 306.62 668.91 305.73 659.75 306.00 649.00 C 306.27 638.25 305.87 627.58 306.00 617.00 C 306.13 606.42 305.94 596.45 306.00 586.00 C 306.06 575.55 305.98 565.40 306.00 555.00 C 306.02 544.61 306.00 534.38 306.00 524.00 C 306.00 513.62 306.02 503.40 306.00 493.00 C 305.98 482.60 306.05 471.35 306.00 461.00 C 305.95 450.65 306.11 440.19 306.00 430.00 C 305.89 419.81 306.25 408.94 306.00 399.00 C 305.75 389.06 306.56 377.43 306.00 368.00 C 305.44 358.57 307.23 345.31 306.00 337.00 C 304.77 328.69 310.01 312.49 303.00 309.00
C 306.56 315.22 304.39 323.77 305.00 331.00 C 305.61 338.23 304.72 346.53 305.00 354.00 C 305.28 361.47 304.87 369.42 305.00 377.00 C 305.13 384.58 304.94 392.37 305.00 400.00 C 305.06 407.63 304.97 415.35 305.00 423.00 C 305.03 430.65 304.99 438.34 305.00 446.00 C 305.01 453.66 304.99 461.34 305.00 469.00 C 305.01 476.66 305.00 484.34 305.00 492.00 C 305.00 499.66 305.00 507.34 305.00 515.00 C 305.00 522.66 304.99 530.34 305.00 538.00 C 305.01 545.66 304.99 553.35 305.00 561.00 C 305.01 568.65 304.97 576.37 305.00 584.00 C 305.03 591.63 304.94 599.41 305.00 607.00 C 305.06 614.59 304.88 622.50 305.00 630.00 C 305.12 637.50 304.72 645.69 305.00 653.00 C 305.28 660.31 304.39 669.13 305.00 676.00 C 305.61 682.87 303.65 693.10 305.00 699.00 C 306.35 704.90 301.53 717.87 306.00 721.00 Z"/>
</g>
<g fill="None" fill-opacity="0.0" stroke="#160001" stroke-opacity="1.00" stroke-width="0.3"><path d="
M 420.00 351.00 
C 421.60 360.85 421.25 372.38 421.00 383.00 C 420.75 393.62 421.77 406.56 421.00 417.00 C 420.23 427.44 422.86 440.27 421.00 450.00 C 419.14 459.73 425.53 475.52 420.00 483.00
C 420.00 483.00 420.23 483.84 420.00 484.00
C 424.74 482.99 421.16 469.88 422.00 465.00 C 422.84 460.12 421.59 450.00 422.00 444.00 C 422.41 438.00 421.74 429.46 422.00 423.00 C 422.26 416.54 421.74 409.70 422.00 403.00 C 422.26 396.30 421.57 388.83 422.00 382.00 C 422.43 375.17 421.11 367.84 422.00 361.00 C 422.89 354.16 420.99 348.55 419.00 344.00
C 419.52 346.48 419.86 348.36 420.00 351.00 Z"/>
</g>
<g fill="None" fill-opacity="0.0" stroke="#603848" stroke-opacity="1.00" stroke-width="0.3"><path d="
M 420.00 483.00 
C 425.53 475.52 419.14 459.73 421.00 450.00 C 422.86 440.27 420.23 427.44 421.00 417.00 C 421.77 406.56 420.75 393.62 421.00 383.00 C 421.25 372.38 421.60 360.85 420.00 351.00
C 422.37 394.70 420.00 439.22 420.00 483.00 Z"/>
</g>
<g fill="None" fill-opacity="0.0" stroke="#1B0003" stroke-opacity="1.00" stroke-width="0.3"><path d="
M 256.00 624.00 
C 249.02 623.76 244.58 619.37 243.00 613.00
C 237.95 592.61 242.91 567.63 242.00 546.00 C 241.09 524.37 240.84 499.58 242.00 478.00 C 243.16 456.42 237.54 431.16 243.00 411.00
C 246.56 397.86 264.64 396.20 269.00 410.00
C 273.78 425.11 268.51 443.59 270.00 460.00 C 271.49 476.41 269.35 494.28 270.00 511.00 C 270.65 527.72 269.75 545.14 270.00 562.00 C 270.25 578.86 269.99 596.11 270.00 613.00
C 270.00 613.50 270.00 614.00 270.00 614.00
C 269.02 612.98 272.12 598.81 271.00 593.00 C 269.88 587.19 271.50 576.87 271.00 570.00 C 270.50 563.13 271.22 554.40 271.00 547.00 C 270.78 539.60 271.11 530.60 271.00 523.00 C 270.89 515.40 271.06 507.64 271.00 500.00 C 270.94 492.36 271.06 484.68 271.00 477.00 C 270.94 469.32 271.10 460.60 271.00 453.00 C 270.90 445.40 271.21 437.34 271.00 430.00 C 270.79 422.66 271.93 414.58 269.92 408.08 C 267.92 401.57 261.19 398.32 255.00 399.00 C 248.82 399.69 243.68 402.39 241.93 408.93 C 240.18 415.46 241.18 423.59 241.00 431.00 C 240.82 438.41 241.09 447.36 241.00 455.00 C 240.91 462.64 241.06 470.24 241.00 478.00 C 240.94 485.76 241.06 493.07 241.00 501.00 C 240.94 508.93 241.11 516.85 241.00 525.00 C 240.89 533.15 241.23 539.40 241.00 548.00 C 240.77 556.60 241.51 561.32 241.00 571.00 C 240.49 580.68 242.08 583.21 241.00 595.00 C 239.92 606.79 240.24 626.24 256.00 624.00 Z"/>
</g>
<g fill="None" fill-opacity="0.0" stroke="#C28AAE" stroke-opacity="1.00" stroke-width="0.3"><path d="
M 243.00 411.00 
C 239.89 432.78 243.90 455.94 243.00 478.00 C 242.10 500.06 242.28 522.85 243.00 545.00 C 243.72 567.15 240.27 590.99 243.00 613.00
C 244.58 619.37 249.02 623.76 256.00 624.00
C 262.63 623.06 267.07 620.03 270.00 614.00
C 270.00 614.00 270.00 613.50 270.00 613.00
C 264.79 614.88 261.28 627.07 251.99 622.01 C 242.71 616.95 243.90 610.62 244.00 601.00 C 244.10 591.38 243.96 581.67 244.00 572.00 C 244.04 562.33 243.99 552.72 244.00 543.00 C 244.01 533.28 244.00 522.69 244.00 513.00 C 244.00 503.31 244.03 493.56 244.00 484.00 C 243.97 474.44 244.07 464.35 244.00 455.00 C 243.93 445.65 244.15 434.93 244.00 426.00 C 243.85 417.07 242.45 407.87 250.08 403.08 C 257.71 398.29 266.98 405.55 269.00 410.00
C 264.64 396.20 246.56 397.86 243.00 411.00 Z"/>
</g>
<g fill="None" fill-opacity="0.0" stroke="#AE769A" stroke-opacity="1.00" stroke-width="0.3"><path d="
M 270.00 613.00 
C 269.99 596.11 270.25 578.86 270.00 562.00 C 269.75 545.14 270.65 527.72 270.00 511.00 C 269.35 494.28 271.49 476.41 270.00 460.00 C 268.51 443.59 273.78 425.11 269.00 410.00
C 266.98 405.55 257.71 398.29 250.08 403.08 C 242.45 407.87 243.85 417.07 244.00 426.00 C 244.15 434.93 243.93 445.65 244.00 455.00 C 244.07 464.35 243.97 474.44 244.00 484.00 C 244.03 493.56 244.00 503.31 244.00 513.00 C 244.00 522.69 244.01 533.28 244.00 543.00 C 243.99 552.72 244.04 562.33 244.00 572.00 C 243.96 581.67 244.10 591.38 244.00 601.00 C 243.90 610.62 242.71 616.95 251.99 622.01 C 261.28 627.07 264.79 614.88 270.00 613.00 Z"/>
</g>
<g fill="None" fill-opacity="0.0" stroke="#84536C" stroke-opacity="1.00" stroke-width="0.3"><path d="
M 243.00 613.00 
C 240.27 590.99 243.72 567.15 243.00 545.00 C 242.28 522.85 242.10 500.06 243.00 478.00 C 243.90 455.94 239.89 432.78 243.00 411.00
C 237.54 431.16 243.16 456.42 242.00 478.00 C 240.84 499.58 241.09 524.37 242.00 546.00 C 242.91 567.63 237.95 592.61 243.00 613.00 Z"/>
</g>
<g fill="None" fill-opacity="0.0" stroke="#1F0207" stroke-opacity="1.00" stroke-width="0.3"><path d="
M 185.00 465.00 
C 194.16 457.87 210.84 456.45 210.99 472.01 C 211.15 487.57 211.95 503.08 211.00 518.00 C 210.05 532.92 214.59 548.59 209.00 562.00
C 216.30 557.68 210.43 543.92 212.00 536.00 C 213.57 528.08 210.79 515.67 212.00 507.00 C 213.21 498.33 210.34 486.75 212.00 478.00 C 213.66 469.25 209.10 461.82 202.68 458.32 C 196.26 454.82 184.54 459.19 185.00 465.00 Z"/>
</g>
<g fill="None" fill-opacity="0.0" stroke="#AF779B" stroke-opacity="1.00" stroke-width="0.3"><path d="
M 185.00 465.00 
C 184.73 465.21 184.30 465.79 184.00 466.00
C 178.89 478.65 184.74 495.24 183.00 509.00 C 181.26 522.76 183.98 539.02 183.00 553.00 C 182.02 566.98 199.08 572.08 208.00 563.00
C 208.25 562.75 208.68 562.19 209.00 562.00
C 214.59 548.59 210.05 532.92 211.00 518.00 C 211.95 503.08 211.15 487.57 210.99 472.01 C 210.84 456.45 194.16 457.87 185.00 465.00 Z"/>
</g>
<g fill="None" fill-opacity="0.0" stroke="#1B0105" stroke-opacity="1.00" stroke-width="0.3"><path d="
M 208.00 563.00 
C 199.08 572.08 182.02 566.98 183.00 553.00 C 183.98 539.02 181.26 522.76 183.00 509.00 C 184.74 495.24 178.89 478.65 184.00 466.00
C 177.78 470.39 183.70 484.53 182.00 492.00 C 180.30 499.47 183.24 511.78 182.00 520.00 C 180.76 528.22 183.59 539.77 182.00 548.00 C 180.41 556.23 184.22 564.06 190.31 567.69 C 196.39 571.33 208.43 568.42 208.00 563.00 Z"/>
</g>
<g fill="None" fill-opacity="0.0" stroke="#65394B" stroke-opacity="1.00" stroke-width="0.3"><path d="
M 432.00 616.00 
C 437.67 611.15 442.71 605.29 448.00 600.00
C 442.33 604.85 437.29 610.71 432.00 616.00 Z"/>
</g>
<g fill="None" fill-opacity="0.0" stroke="#CA94B4" stroke-opacity="1.00" stroke-width="0.3"><path d="
M 639.00 721.00 
C 678.25 723.67 718.64 721.00 758.00 721.00
C 719.88 717.31 677.27 719.89 639.00 721.00 Z"/>
</g>
<g fill="#310B0F" fill-opacity="1.00" stroke="None">
<path d="
M 0.00 1024.00 
L 1024.00 1024.00
L 1024.00 0.00
L 0.00 0.00
L 0.00 1024.00
M 769.00 303.00 
C 780.29 303.00 788.53 303.40 780.75 311.75 C 772.96 320.09 771.83 321.05 766.08 328.08 C 760.34 335.11 756.66 338.16 751.25 344.25 C 745.84 350.34 741.37 355.43 736.25 361.25 C 731.13 367.07 726.94 372.22 721.75 377.75 C 716.56 383.28 712.48 388.82 707.25 394.25 C 702.02 399.68 697.16 405.66 692.25 411.25 C 687.34 416.83 682.83 422.33 677.75 427.75 C 672.67 433.17 667.99 438.63 663.25 444.25 C 658.50 449.87 652.34 455.08 647.75 460.75 C 643.17 466.42 638.01 471.79 633.25 477.25 C 628.49 482.70 623.13 488.44 619.23 494.23 C 615.33 500.02 606.94 505.39 604.75 511.75 C 602.55 518.10 613.21 523.97 616.30 529.70 C 619.39 535.42 626.30 540.97 630.25 546.75 C 634.21 552.52 640.54 558.40 644.75 564.25 C 648.97 570.10 654.10 575.57 658.75 581.25 C 663.40 586.93 667.99 592.53 672.75 598.25 C 677.52 603.97 682.00 610.45 686.92 616.08 C 691.84 621.72 696.52 627.20 700.92 633.08 C 705.31 638.97 710.58 644.01 715.25 649.75 C 719.92 655.50 724.36 662.10 729.25 667.75 C 734.15 673.39 738.79 678.83 743.30 684.70 C 747.82 690.56 752.87 695.75 757.25 701.75 C 761.63 707.75 767.93 713.33 771.00 720.00
C 767.00 721.54 762.37 720.87 758.00 721.00
C 718.64 721.00 678.25 723.67 639.00 721.00
C 619.80 719.69 605.07 706.78 594.08 691.92 C 583.10 677.06 572.93 664.33 561.25 650.75 C 549.57 637.17 540.43 622.44 528.25 609.75 C 516.06 597.07 509.17 578.09 491.98 572.03 C 474.78 565.96 459.63 590.06 448.00 600.00
C 442.71 605.29 437.67 611.15 432.00 616.00
C 420.12 626.15 402.11 638.70 387.75 626.25 C 373.40 613.79 374.33 591.56 377.78 575.78 C 381.23 560.00 395.78 550.30 404.92 537.92 C 414.06 525.53 425.23 515.67 434.77 503.77 C 444.31 491.87 455.77 481.10 465.30 469.30 C 474.83 457.50 485.97 447.33 495.75 435.75 C 505.54 424.17 515.54 413.12 525.75 401.75 C 535.97 390.38 546.14 378.77 556.25 367.25 C 566.36 355.73 576.30 345.03 586.25 333.25 C 596.21 321.48 607.64 308.24 623.00 305.00
C 636.24 300.17 653.91 302.22 670.00 302.00 C 686.09 301.78 703.77 302.07 720.00 302.00 C 736.23 301.93 753.58 301.51 769.00 303.00
M 386.00 304.00 
C 385.77 304.35 386.00 305.00 386.00 305.00
C 402.96 306.94 415.94 329.47 419.00 344.00
C 420.99 348.55 422.89 354.16 422.00 361.00 C 421.11 367.84 422.43 375.17 422.00 382.00 C 421.57 388.83 422.26 396.30 422.00 403.00 C 421.74 409.70 422.26 416.54 422.00 423.00 C 421.74 429.46 422.41 438.00 422.00 444.00 C 421.59 450.00 422.84 460.12 422.00 465.00 C 421.16 469.88 424.74 482.99 420.00 484.00
C 407.11 492.98 397.81 511.39 387.25 523.25 C 376.69 535.11 361.74 550.79 357.00 566.00
C 350.31 587.46 352.96 613.42 364.77 632.23 C 376.58 651.04 400.62 658.02 421.00 650.00
C 424.24 677.36 417.03 710.01 388.00 719.00
C 376.14 722.70 360.85 721.87 348.00 721.00 C 335.15 720.13 318.52 724.12 306.00 721.00
C 301.10 719.78 304.89 702.49 304.00 695.00 C 303.11 687.51 304.40 673.91 304.00 665.00 C 303.60 656.09 304.17 644.61 304.00 635.00 C 303.83 625.39 304.08 613.88 304.00 604.00 C 303.92 594.12 304.03 583.98 304.00 574.00 C 303.97 564.02 304.01 554.07 304.00 544.00 C 303.99 533.93 303.99 523.08 304.00 513.00 C 304.01 502.92 303.96 493.03 304.00 483.00 C 304.04 472.97 303.91 463.00 304.00 453.00 C 304.09 443.00 303.81 432.96 304.00 423.00 C 304.19 413.04 303.59 401.79 304.00 392.00 C 304.41 382.21 303.06 371.33 304.00 362.00 C 304.94 352.67 301.90 340.42 304.00 332.00 C 306.10 323.58 297.87 310.65 302.00 305.00
C 301.95 304.50 302.00 304.00 302.00 304.00
C 305.93 299.93 317.26 304.29 323.00 303.00 C 328.74 301.71 339.12 303.83 345.00 303.00 C 350.88 302.17 361.94 303.93 367.00 303.00 C 372.06 302.07 385.86 304.22 386.00 304.00
M 270.00 614.00 
C 267.07 620.03 262.63 623.06 256.00 624.00
C 240.24 626.24 239.92 606.79 241.00 595.00 C 242.08 583.21 240.49 580.68 241.00 571.00 C 241.51 561.32 240.77 556.60 241.00 548.00 C 241.23 539.40 240.89 533.15 241.00 525.00 C 241.11 516.85 240.94 508.93 241.00 501.00 C 241.06 493.07 240.94 485.76 241.00 478.00 C 241.06 470.24 240.91 462.64 241.00 455.00 C 241.09 447.36 240.82 438.41 241.00 431.00 C 241.18 423.59 240.18 415.46 241.93 408.93 C 243.68 402.39 248.82 399.69 255.00 399.00 C 261.19 398.32 267.92 401.57 269.92 408.08 C 271.93 414.58 270.79 422.66 271.00 430.00 C 271.21 437.34 270.90 445.40 271.00 453.00 C 271.10 460.60 270.94 469.32 271.00 477.00 C 271.06 484.68 270.94 492.36 271.00 500.00 C 271.06 507.64 270.89 515.40 271.00 523.00 C 271.11 530.60 270.78 539.60 271.00 547.00 C 271.22 554.40 270.50 563.13 271.00 570.00 C 271.50 576.87 269.88 587.19 271.00 593.00 C 272.12 598.81 269.02 612.98 270.00 614.00
M 209.00 562.00 
C 208.68 562.19 208.25 562.75 208.00 563.00
C 208.43 568.42 196.39 571.33 190.31 567.69 C 184.22 564.06 180.41 556.23 182.00 548.00 C 183.59 539.77 180.76 528.22 182.00 520.00 C 183.24 511.78 180.30 499.47 182.00 492.00 C 183.70 484.53 177.78 470.39 184.00 466.00
C 184.30 465.79 184.73 465.21 185.00 465.00
C 184.54 459.19 196.26 454.82 202.68 458.32 C 209.10 461.82 213.66 469.25 212.00 478.00 C 210.34 486.75 213.21 498.33 212.00 507.00 C 210.79 515.67 213.57 528.08 212.00 536.00 C 210.43 543.92 216.30 557.68 209.00 562.00 Z"/>
</g>
<g fill="#190004" fill-opacity="1.00" stroke="None">
<path d="
M 623.00 305.00 
C 646.10 300.13 670.87 303.77 695.00 303.00 C 719.13 302.23 744.73 303.00 769.00 303.00
C 753.58 301.51 736.23 301.93 720.00 302.00 C 703.77 302.07 686.09 301.78 670.00 302.00 C 653.91 302.22 636.24 300.17 623.00 305.00 Z"/>
</g>
<g fill="#170000" fill-opacity="1.00" stroke="None">
<path d="
M 302.00 304.00 
C 315.74 302.76 330.19 304.00 344.00 304.00 C 357.81 304.00 372.26 302.76 386.00 304.00
C 385.86 304.22 372.06 302.07 367.00 303.00 C 361.94 303.93 350.88 302.17 345.00 303.00 C 339.12 303.83 328.74 301.71 323.00 303.00 C 317.26 304.29 305.93 299.93 302.00 304.00 Z"/>
</g>
<g fill="#AD7599" fill-opacity="1.00" stroke="None">
<path d="
M 623.00 305.00 
C 607.64 308.24 596.21 321.48 586.25 333.25 C 576.30 345.03 566.36 355.73 556.25 367.25 C 546.14 378.77 535.97 390.38 525.75 401.75 C 515.54 413.12 505.54 424.17 495.75 435.75 C 485.97 447.33 474.83 457.50 465.30 469.30 C 455.77 481.10 444.31 491.87 434.77 503.77 C 425.23 515.67 414.06 525.53 404.92 537.92 C 395.78 550.30 381.23 560.00 377.78 575.78 C 374.33 591.56 373.40 613.79 387.75 626.25 C 402.11 638.70 420.12 626.15 432.00 616.00
C 437.29 610.71 442.33 604.85 448.00 600.00
C 459.63 590.06 474.78 565.96 491.98 572.03 C 509.17 578.09 516.06 597.07 528.25 609.75 C 540.43 622.44 549.57 637.17 561.25 650.75 C 572.93 664.33 583.10 677.06 594.08 691.92 C 605.07 706.78 619.80 719.69 639.00 721.00
C 677.27 719.89 719.88 717.31 758.00 721.00
C 762.37 720.87 767.00 721.54 771.00 720.00
C 767.93 713.33 761.63 707.75 757.25 701.75 C 752.87 695.75 747.82 690.56 743.30 684.70 C 738.79 678.83 734.15 673.39 729.25 667.75 C 724.36 662.10 719.92 655.50 715.25 649.75 C 710.58 644.01 705.31 638.97 700.92 633.08 C 696.52 627.20 691.84 621.72 686.92 616.08 C 682.00 610.45 677.52 603.97 672.75 598.25 C 667.99 592.53 663.40 586.93 658.75 581.25 C 654.10 575.57 648.97 570.10 644.75 564.25 C 640.54 558.40 634.21 552.52 630.25 546.75 C 626.30 540.97 619.39 535.42 616.30 529.70 C 613.21 523.97 602.55 518.10 604.75 511.75 C 606.94 505.39 615.33 500.02 619.23 494.23 C 623.13 488.44 628.49 482.70 633.25 477.25 C 638.01 471.79 643.17 466.42 647.75 460.75 C 652.34 455.08 658.50 449.87 663.25 444.25 C 667.99 438.63 672.67 433.17 677.75 427.75 C 682.83 422.33 687.34 416.83 692.25 411.25 C 697.16 405.66 702.02 399.68 707.25 394.25 C 712.48 388.82 716.56 383.28 721.75 377.75 C 726.94 372.22 731.13 367.07 736.25 361.25 C 741.37 355.43 745.84 350.34 751.25 344.25 C 756.66 338.16 760.34 335.11 766.08 328.08 C 771.83 321.05 772.96 320.09 780.75 311.75 C 788.53 303.40 780.29 303.00 769.00 303.00
C 744.73 303.00 719.13 302.23 695.00 303.00 C 670.87 303.77 646.10 300.13 623.00 305.00 Z"/>
</g>
<g fill="#9C6686" fill-opacity="1.00" stroke="None">
<path d="
M 302.00 305.00 
C 302.03 305.35 302.89 305.74 303.00 306.00
C 315.48 302.26 330.50 306.32 344.00 305.00 C 357.50 303.69 372.39 306.22 386.00 305.00
C 386.00 305.00 385.77 304.35 386.00 304.00
C 372.26 302.76 357.81 304.00 344.00 304.00 C 330.19 304.00 315.74 302.76 302.00 304.00
C 302.00 304.00 301.95 304.50 302.00 305.00 Z"/>
</g>
<g fill="#160003" fill-opacity="1.00" stroke="None">
<path d="
M 306.00 721.00 
C 301.53 717.87 306.35 704.90 305.00 699.00 C 303.65 693.10 305.61 682.87 305.00 676.00 C 304.39 669.13 305.28 660.31 305.00 653.00 C 304.72 645.69 305.12 637.50 305.00 630.00 C 304.88 622.50 305.06 614.59 305.00 607.00 C 304.94 599.41 305.03 591.63 305.00 584.00 C 304.97 576.37 305.01 568.65 305.00 561.00 C 304.99 553.35 305.01 545.66 305.00 538.00 C 304.99 530.34 305.00 522.66 305.00 515.00 C 305.00 507.34 305.00 499.66 305.00 492.00 C 305.00 484.34 305.01 476.66 305.00 469.00 C 304.99 461.34 305.01 453.66 305.00 446.00 C 304.99 438.34 305.03 430.65 305.00 423.00 C 304.97 415.35 305.06 407.63 305.00 400.00 C 304.94 392.37 305.13 384.58 305.00 377.00 C 304.87 369.42 305.28 361.47 305.00 354.00 C 304.72 346.53 305.61 338.23 305.00 331.00 C 304.39 323.77 306.56 315.22 303.00 309.00
C 302.78 308.62 303.00 308.00 303.00 308.00
C 303.00 307.50 303.18 306.42 303.00 306.00
C 302.89 305.74 302.03 305.35 302.00 305.00
C 297.87 310.65 306.10 323.58 304.00 332.00 C 301.90 340.42 304.94 352.67 304.00 362.00 C 303.06 371.33 304.41 382.21 304.00 392.00 C 303.59 401.79 304.19 413.04 304.00 423.00 C 303.81 432.96 304.09 443.00 304.00 453.00 C 303.91 463.00 304.04 472.97 304.00 483.00 C 303.96 493.03 304.01 502.92 304.00 513.00 C 303.99 523.08 303.99 533.93 304.00 544.00 C 304.01 554.07 303.97 564.02 304.00 574.00 C 304.03 583.98 303.92 594.12 304.00 604.00 C 304.08 613.88 303.83 625.39 304.00 635.00 C 304.17 644.61 303.60 656.09 304.00 665.00 C 304.40 673.91 303.11 687.51 304.00 695.00 C 304.89 702.49 301.10 719.78 306.00 721.00 Z"/>
</g>
<g fill="#C28BAD" fill-opacity="1.00" stroke="None">
<path d="
M 303.00 306.00 
C 303.18 306.42 303.00 307.50 303.00 308.00
C 305.34 302.31 320.65 307.38 327.00 306.00 C 333.35 304.62 345.59 306.89 353.00 306.00 C 360.41 305.11 371.38 307.00 379.00 306.00 C 386.62 305.00 392.78 308.36 398.25 312.75 C 403.71 317.15 407.08 320.19 410.77 326.23 C 414.46 332.27 416.39 337.69 417.98 345.02 C 419.57 352.36 418.91 361.83 419.00 370.00 C 419.09 378.17 418.90 387.61 419.00 396.00 C 419.10 404.39 418.82 413.57 419.00 422.00 C 419.18 430.43 418.63 439.69 419.00 448.00 C 419.37 456.31 418.18 466.05 419.00 474.00 C 419.82 481.95 416.12 487.13 411.25 492.25 C 406.38 497.37 404.07 501.75 399.70 506.70 C 395.33 511.65 392.05 516.12 388.08 521.08 C 384.12 526.04 380.49 530.52 376.25 535.25 C 372.00 539.97 369.19 545.02 364.75 549.75 C 360.30 554.48 357.77 560.78 357.00 566.00
C 361.74 550.79 376.69 535.11 387.25 523.25 C 397.81 511.39 407.11 492.98 420.00 484.00
C 420.23 483.84 420.00 483.00 420.00 483.00
C 420.00 439.22 422.37 394.70 420.00 351.00
C 419.86 348.36 419.52 346.48 419.00 344.00
C 415.94 329.47 402.96 306.94 386.00 305.00
C 372.39 306.22 357.50 303.69 344.00 305.00 C 330.50 306.32 315.48 302.26 303.00 306.00 Z"/>
</g>
<g fill="#AD7599" fill-opacity="1.00" stroke="None">
<path d="
M 303.00 308.00 
C 303.00 308.00 302.78 308.62 303.00 309.00
C 310.01 312.49 304.77 328.69 306.00 337.00 C 307.23 345.31 305.44 358.57 306.00 368.00 C 306.56 377.43 305.75 389.06 306.00 399.00 C 306.25 408.94 305.89 419.81 306.00 430.00 C 306.11 440.19 305.95 450.65 306.00 461.00 C 306.05 471.35 305.98 482.60 306.00 493.00 C 306.02 503.40 306.00 513.62 306.00 524.00 C 306.00 534.38 306.02 544.61 306.00 555.00 C 305.98 565.40 306.06 575.55 306.00 586.00 C 305.94 596.45 306.13 606.42 306.00 617.00 C 305.87 627.58 306.27 638.25 306.00 649.00 C 305.73 659.75 306.62 668.91 306.00 680.00 C 305.38 691.09 307.38 699.05 306.00 711.00 C 304.62 722.95 318.15 720.19 328.00 720.00 C 337.85 719.81 349.16 720.18 359.00 720.00 C 368.84 719.82 379.68 720.25 388.00 719.00
C 417.03 710.01 424.24 677.36 421.00 650.00
C 400.62 658.02 376.58 651.04 364.77 632.23 C 352.96 613.42 350.31 587.46 357.00 566.00
C 357.77 560.78 360.30 554.48 364.75 549.75 C 369.19 545.02 372.00 539.97 376.25 535.25 C 380.49 530.52 384.12 526.04 388.08 521.08 C 392.05 516.12 395.33 511.65 399.70 506.70 C 404.07 501.75 406.38 497.37 411.25 492.25 C 416.12 487.13 419.82 481.95 419.00 474.00 C 418.18 466.05 419.37 456.31 419.00 448.00 C 418.63 439.69 419.18 430.43 419.00 422.00 C 418.82 413.57 419.10 404.39 419.00 396.00 C 418.90 387.61 419.09 378.17 419.00 370.00 C 418.91 361.83 419.57 352.36 417.98 345.02 C 416.39 337.69 414.46 332.27 410.77 326.23 C 407.08 320.19 403.71 317.15 398.25 312.75 C 392.78 308.36 386.62 305.00 379.00 306.00 C 371.38 307.00 360.41 305.11 353.00 306.00 C 345.59 306.89 333.35 304.62 327.00 306.00 C 320.65 307.38 305.34 302.31 303.00 308.00 Z"/>
</g>
<g fill="#BE8CA7" fill-opacity="1.00" stroke="None">
<path d="
M 306.00 721.00 
C 318.52 724.12 335.15 720.13 348.00 721.00 C 360.85 721.87 376.14 722.70 388.00 719.00
C 379.68 720.25 368.84 719.82 359.00 720.00 C 349.16 720.18 337.85 719.81 328.00 720.00 C 318.15 720.19 304.62 722.95 306.00 711.00 C 307.38 699.05 305.38 691.09 306.00 680.00 C 306.62 668.91 305.73 659.75 306.00 649.00 C 306.27 638.25 305.87 627.58 306.00 617.00 C 306.13 606.42 305.94 596.45 306.00 586.00 C 306.06 575.55 305.98 565.40 306.00 555.00 C 306.02 544.61 306.00 534.38 306.00 524.00 C 306.00 513.62 306.02 503.40 306.00 493.00 C 305.98 482.60 306.05 471.35 306.00 461.00 C 305.95 450.65 306.11 440.19 306.00 430.00 C 305.89 419.81 306.25 408.94 306.00 399.00 C 305.75 389.06 306.56 377.43 306.00 368.00 C 305.44 358.57 307.23 345.31 306.00 337.00 C 304.77 328.69 310.01 312.49 303.00 309.00
C 306.56 315.22 304.39 323.77 305.00 331.00 C 305.61 338.23 304.72 346.53 305.00 354.00 C 305.28 361.47 304.87 369.42 305.00 377.00 C 305.13 384.58 304.94 392.37 305.00 400.00 C 305.06 407.63 304.97 415.35 305.00 423.00 C 305.03 430.65 304.99 438.34 305.00 446.00 C 305.01 453.66 304.99 461.34 305.00 469.00 C 305.01 476.66 305.00 484.34 305.00 492.00 C 305.00 499.66 305.00 507.34 305.00 515.00 C 305.00 522.66 304.99 530.34 305.00 538.00 C 305.01 545.66 304.99 553.35 305.00 561.00 C 305.01 568.65 304.97 576.37 305.00 584.00 C 305.03 591.63 304.94 599.41 305.00 607.00 C 305.06 614.59 304.88 622.50 305.00 630.00 C 305.12 637.50 304.72 645.69 305.00 653.00 C 305.28 660.31 304.39 669.13 305.00 676.00 C 305.61 682.87 303.65 693.10 305.00 699.00 C 306.35 704.90 301.53 717.87 306.00 721.00 Z"/>
</g>
<g fill="#160001" fill-opacity="1.00" stroke="None">
<path d="
M 420.00 351.00 
C 421.60 360.85 421.25 372.38 421.00 383.00 C 420.75 393.62 421.77 406.56 421.00 417.00 C 420.23 427.44 422.86 440.27 421.00 450.00 C 419.14 459.73 425.53 475.52 420.00 483.00
C 420.00 483.00 420.23 483.84 420.00 484.00
C 424.74 482.99 421.16 469.88 422.00 465.00 C 422.84 460.12 421.59 450.00 422.00 444.00 C 422.41 438.00 421.74 429.46 422.00 423.00 C 422.26 416.54 421.74 409.70 422.00 403.00 C 422.26 396.30 421.57 388.83 422.00 382.00 C 422.43 375.17 421.11 367.84 422.00 361.00 C 422.89 354.16 420.99 348.55 419.00 344.00
C 419.52 346.48 419.86 348.36 420.00 351.00 Z"/>
</g>
<g fill="#603848" fill-opacity="1.00" stroke="None">
<path d="
M 420.00 483.00 
C 425.53 475.52 419.14 459.73 421.00 450.00 C 422.86 440.27 420.23 427.44 421.00 417.00 C 421.77 406.56 420.75 393.62 421.00 383.00 C 421.25 372.38 421.60 360.85 420.00 351.00
C 422.37 394.70 420.00 439.22 420.00 483.00 Z"/>
</g>
<g fill="#1B0003" fill-opacity="1.00" stroke="None">
<path d="
M 256.00 624.00 
C 249.02 623.76 244.58 619.37 243.00 613.00
C 237.95 592.61 242.91 567.63 242.00 546.00 C 241.09 524.37 240.84 499.58 242.00 478.00 C 243.16 456.42 237.54 431.16 243.00 411.00
C 246.56 397.86 264.64 396.20 269.00 410.00
C 273.78 425.11 268.51 443.59 270.00 460.00 C 271.49 476.41 269.35 494.28 270.00 511.00 C 270.65 527.72 269.75 545.14 270.00 562.00 C 270.25 578.86 269.99 596.11 270.00 613.00
C 270.00 613.50 270.00 614.00 270.00 614.00
C 269.02 612.98 272.12 598.81 271.00 593.00 C 269.88 587.19 271.50 576.87 271.00 570.00 C 270.50 563.13 271.22 554.40 271.00 547.00 C 270.78 539.60 271.11 530.60 271.00 523.00 C 270.89 515.40 271.06 507.64 271.00 500.00 C 270.94 492.36 271.06 484.68 271.00 477.00 C 270.94 469.32 271.10 460.60 271.00 453.00 C 270.90 445.40 271.21 437.34 271.00 430.00 C 270.79 422.66 271.93 414.58 269.92 408.08 C 267.92 401.57 261.19 398.32 255.00 399.00 C 248.82 399.69 243.68 402.39 241.93 408.93 C 240.18 415.46 241.18 423.59 241.00 431.00 C 240.82 438.41 241.09 447.36 241.00 455.00 C 240.91 462.64 241.06 470.24 241.00 478.00 C 240.94 485.76 241.06 493.07 241.00 501.00 C 240.94 508.93 241.11 516.85 241.00 525.00 C 240.89 533.15 241.23 539.40 241.00 548.00 C 240.77 556.60 241.51 561.32 241.00 571.00 C 240.49 580.68 242.08 583.21 241.00 595.00 C 239.92 606.79 240.24 626.24 256.00 624.00 Z"/>
</g>
<g fill="#C28AAE" fill-opacity="1.00" stroke="None">
<path d="
M 243.00 411.00 
C 239.89 432.78 243.90 455.94 243.00 478.00 C 242.10 500.06 242.28 522.85 243.00 545.00 C 243.72 567.15 240.27 590.99 243.00 613.00
C 244.58 619.37 249.02 623.76 256.00 624.00
C 262.63 623.06 267.07 620.03 270.00 614.00
C 270.00 614.00 270.00 613.50 270.00 613.00
C 264.79 614.88 261.28 627.07 251.99 622.01 C 242.71 616.95 243.90 610.62 244.00 601.00 C 244.10 591.38 243.96 581.67 244.00 572.00 C 244.04 562.33 243.99 552.72 244.00 543.00 C 244.01 533.28 244.00 522.69 244.00 513.00 C 244.00 503.31 244.03 493.56 244.00 484.00 C 243.97 474.44 244.07 464.35 244.00 455.00 C 243.93 445.65 244.15 434.93 244.00 426.00 C 243.85 417.07 242.45 407.87 250.08 403.08 C 257.71 398.29 266.98 405.55 269.00 410.00
C 264.64 396.20 246.56 397.86 243.00 411.00 Z"/>
</g>
<g fill="#AE769A" fill-opacity="1.00" stroke="None">
<path d="
M 270.00 613.00 
C 269.99 596.11 270.25 578.86 270.00 562.00 C 269.75 545.14 270.65 527.72 270.00 511.00 C 269.35 494.28 271.49 476.41 270.00 460.00 C 268.51 443.59 273.78 425.11 269.00 410.00
C 266.98 405.55 257.71 398.29 250.08 403.08 C 242.45 407.87 243.85 417.07 244.00 426.00 C 244.15 434.93 243.93 445.65 244.00 455.00 C 244.07 464.35 243.97 474.44 244.00 484.00 C 244.03 493.56 244.00 503.31 244.00 513.00 C 244.00 522.69 244.01 533.28 244.00 543.00 C 243.99 552.72 244.04 562.33 244.00 572.00 C 243.96 581.67 244.10 591.38 244.00 601.00 C 243.90 610.62 242.71 616.95 251.99 622.01 C 261.28 627.07 264.79 614.88 270.00 613.00 Z"/>
</g>
<g fill="#84536C" fill-opacity="1.00" stroke="None">
<path d="
M 243.00 613.00 
C 240.27 590.99 243.72 567.15 243.00 545.00 C 242.28 522.85 242.10 500.06 243.00 478.00 C 243.90 455.94 239.89 432.78 243.00 411.00
C 237.54 431.16 243.16 456.42 242.00 478.00 C 240.84 499.58 241.09 524.37 242.00 546.00 C 242.91 567.63 237.95 592.61 243.00 613.00 Z"/>
</g>
<g fill="#1F0207" fill-opacity="1.00" stroke="None">
<path d="
M 185.00 465.00 
C 194.16 457.87 210.84 456.45 210.99 472.01 C 211.15 487.57 211.95 503.08 211.00 518.00 C 210.05 532.92 214.59 548.59 209.00 562.00
C 216.30 557.68 210.43 543.92 212.00 536.00 C 213.57 528.08 210.79 515.67 212.00 507.00 C 213.21 498.33 210.34 486.75 212.00 478.00 C 213.66 469.25 209.10 461.82 202.68 458.32 C 196.26 454.82 184.54 459.19 185.00 465.00 Z"/>
</g>
<g fill="#AF779B" fill-opacity="1.00" stroke="None">
<path d="
M 185.00 465.00 
C 184.73 465.21 184.30 465.79 184.00 466.00
C 178.89 478.65 184.74 495.24 183.00 509.00 C 181.26 522.76 183.98 539.02 183.00 553.00 C 182.02 566.98 199.08 572.08 208.00 563.00
C 208.25 562.75 208.68 562.19 209.00 562.00
C 214.59 548.59 210.05 532.92 211.00 518.00 C 211.95 503.08 211.15 487.57 210.99 472.01 C 210.84 456.45 194.16 457.87 185.00 465.00 Z"/>
</g>
<g fill="#1B0105" fill-opacity="1.00" stroke="None">
<path d="
M 208.00 563.00 
C 199.08 572.08 182.02 566.98 183.00 553.00 C 183.98 539.02 181.26 522.76 183.00 509.00 C 184.74 495.24 178.89 478.65 184.00 466.00
C 177.78 470.39 183.70 484.53 182.00 492.00 C 180.30 499.47 183.24 511.78 182.00 520.00 C 180.76 528.22 183.59 539.77 182.00 548.00 C 180.41 556.23 184.22 564.06 190.31 567.69 C 196.39 571.33 208.43 568.42 208.00 563.00 Z"/>
</g>
<g fill="#65394B" fill-opacity="1.00" stroke="None">
<path d="
M 432.00 616.00 
C 437.67 611.15 442.71 605.29 448.00 600.00
C 442.33 604.85 437.29 610.71 432.00 616.00 Z"/>
</g>
<g fill="#CA94B4" fill-opacity="1.00" stroke="None">
<path d="
M 639.00 721.00 
C 678.25 723.67 718.64 721.00 758.00 721.00
C 719.88 717.31 677.27 719.89 639.00 721.00 Z"/>
</g>
</svg>